<svg xmlns="http://www.w3.org/2000/svg" xmlns:xlink="http://www.w3.org/1999/xlink" width="1080" zoomAndPan="magnify" viewBox="0 0 810 809.999993" height="1080" preserveAspectRatio="xMidYMid meet" version="1.0"><defs><clipPath id="f5c87239ab"><path d="M 405 0 C 181.324219 0 0 181.324219 0 405 C 0 628.675781 181.324219 810 405 810 C 628.675781 810 810 628.675781 810 405 C 810 181.324219 628.675781 0 405 0 Z M 405 0 " clip-rule="nonzero"/></clipPath></defs><g clip-path="url(#f5c87239ab)"><rect x="-81" width="972" fill="#ffffff" y="-80.999999" height="971.999992" fill-opacity="1"/></g><path fill="#000000" d="M 386.691406 579.023438 C 386.691406 512.449219 386.691406 446.273438 386.683594 380.097656 C 386.683594 374.390625 386.671875 374.488281 381.101562 374.320312 C 333.691406 372.894531 291.15625 357.71875 253.527344 328.867188 C 220.585938 303.613281 197.050781 271.304688 182.171875 232.675781 C 177.648438 220.925781 174.355469 208.792969 171.996094 196.363281 C 169.582031 183.644531 168.203125 170.90625 168.148438 157.972656 C 168.128906 154.277344 169.402344 153.164062 172.980469 153.246094 C 181.542969 153.441406 190.117188 153.421875 198.683594 153.234375 C 202.195312 153.15625 203.230469 154.574219 203.300781 157.886719 C 204.117188 196.457031 215.496094 231.621094 238.0625 262.9375 C 260.929688 294.675781 291.152344 316.671875 328.082031 329.527344 C 345.210938 335.488281 362.871094 338.523438 380.9375 339.300781 C 386.652344 339.546875 386.675781 339.378906 386.675781 333.71875 C 386.683594 275.582031 386.679688 217.445312 386.679688 159.308594 C 386.679688 153.328125 386.671875 153.328125 392.46875 153.328125 C 402.09375 153.324219 411.714844 153.320312 421.339844 153.308594 C 426.964844 153.304688 427.113281 153.429688 427.113281 159.035156 C 427.121094 215.0625 427.121094 271.089844 427.128906 327.117188 C 427.140625 436.269531 427.15625 545.421875 427.171875 654.574219 C 427.175781 660.316406 427.007812 660.515625 421.136719 660.519531 C 411.378906 660.53125 401.625 660.515625 391.871094 660.480469 C 386.988281 660.464844 386.683594 660.15625 386.683594 655.347656 C 386.675781 630.039062 386.6875 604.730469 386.691406 579.023438 Z M 386.691406 579.023438 " fill-opacity="1" fill-rule="nonzero"/><path fill="#000000" d="M 549.59375 546.445312 C 553.433594 541.636719 557.105469 537.054688 560.816406 532.425781 C 559.34375 531.152344 557.832031 531.628906 556.464844 531.625 C 542.496094 531.589844 528.523438 531.628906 514.550781 531.609375 C 509.839844 531.601562 509.347656 531.066406 509.289062 526.375 C 509.273438 525.1875 509.332031 524 509.269531 522.816406 C 509.109375 519.941406 510.484375 518.796875 513.296875 518.800781 C 534.386719 518.839844 555.476562 518.851562 576.566406 518.796875 C 579.601562 518.789062 580.617188 520.03125 580.804688 523.046875 C 581.105469 527.769531 579.859375 531.566406 576.824219 535.320312 C 559.105469 557.234375 541.597656 579.320312 524.03125 601.359375 C 523.476562 602.054688 522.65625 602.652344 522.871094 604.058594 C 525.894531 605.308594 529.214844 604.53125 532.378906 604.550781 C 547.269531 604.648438 562.164062 604.523438 577.054688 604.355469 C 580.699219 604.316406 582.5625 605.636719 582.265625 609.429688 C 582.222656 609.953125 582.253906 610.484375 582.253906 611.011719 C 582.234375 617.214844 582.21875 617.21875 576.132812 617.214844 C 553.855469 617.203125 531.578125 617.195312 509.304688 617.179688 C 503.933594 617.175781 504.214844 616.929688 503.628906 611.621094 C 502.988281 605.847656 505.742188 601.917969 508.992188 597.832031 C 522.523438 580.820312 535.957031 563.730469 549.59375 546.445312 Z M 549.59375 546.445312 " fill-opacity="1" fill-rule="nonzero"/><path fill="#000000" d="M 524.894531 190.207031 C 531.070312 198.914062 537.070312 207.398438 543.058594 215.867188 C 544.621094 215.847656 544.976562 214.527344 545.644531 213.640625 C 552.882812 204.089844 560.160156 194.5625 567.261719 184.90625 C 569.027344 182.507812 571.011719 181.4375 573.929688 181.683594 C 577.371094 181.976562 580.921875 181.179688 584.109375 182.171875 C 584.644531 184.109375 583.589844 184.894531 582.910156 185.808594 C 573.421875 198.613281 563.988281 211.460938 554.351562 224.15625 C 552.238281 226.941406 552.179688 229.015625 554.21875 231.835938 C 564.5625 246.136719 574.75 260.550781 584.96875 274.9375 C 585.789062 276.089844 586.941406 277.097656 586.949219 278.90625 C 584.8125 281 582.035156 279.710938 579.570312 280.09375 C 573.332031 281.070312 569.183594 278.878906 565.667969 273.285156 C 559.367188 263.257812 552.128906 253.824219 545.285156 244.140625 C 544.542969 243.085938 544.019531 241.835938 542.4375 241.019531 C 538.410156 246.691406 534.410156 252.339844 530.390625 257.976562 C 525.878906 264.300781 521.3125 270.585938 516.84375 276.945312 C 515.265625 279.1875 513.347656 280.390625 510.535156 280.128906 C 506.554688 279.757812 502.425781 280.890625 498.722656 279.261719 C 498.238281 277.703125 498.992188 276.925781 499.621094 276.078125 C 510.378906 261.589844 521.054688 247.039062 531.945312 232.648438 C 534.15625 229.722656 534.109375 227.746094 531.9375 224.773438 C 522.765625 212.230469 513.882812 199.480469 504.925781 186.78125 C 504.046875 185.542969 502.691406 184.476562 502.96875 182.15625 C 507.085938 181.144531 511.394531 181.898438 515.628906 181.730469 C 521.324219 181.503906 521.75 187.160156 524.894531 190.207031 Z M 524.894531 190.207031 " fill-opacity="1" fill-rule="nonzero"/><path fill="#000000" d="M 513.542969 350.429688 C 515.222656 350.996094 515.804688 352.199219 516.539062 353.292969 C 524.910156 365.757812 533.464844 378.101562 541.238281 390.957031 C 541.5625 391.492188 542.007812 391.953125 542.78125 392.9375 C 546.359375 387.523438 549.726562 382.410156 553.121094 377.316406 C 558.523438 369.203125 563.945312 361.097656 569.355469 352.988281 C 570.097656 351.878906 570.835938 350.554688 572.238281 350.472656 C 577.042969 350.183594 581.863281 350.003906 587.335938 350.660156 C 585.199219 355.773438 581.976562 359.410156 579.273438 363.316406 C 569.902344 376.859375 560.40625 390.308594 550.910156 403.765625 C 549.550781 405.691406 549.070312 407.71875 549.085938 410.054688 C 549.164062 421.257812 549.023438 432.464844 549.207031 443.664062 C 549.265625 447.171875 548.261719 448.703125 544.558594 448.675781 C 532.511719 448.578125 534.679688 449.21875 534.5625 438.808594 C 534.457031 429.320312 534.472656 419.828125 534.546875 410.339844 C 534.566406 407.4375 533.71875 405.019531 532.085938 402.621094 C 521.269531 386.714844 510.550781 370.746094 499.824219 354.777344 C 499.113281 353.71875 498.089844 352.765625 498.191406 350.554688 C 503.128906 349.960938 508.1875 350.355469 513.542969 350.429688 Z M 513.542969 350.429688 " fill-opacity="1" fill-rule="nonzero"/></svg>